<svg width="16" height="16" viewBox="0 0 16 16" fill="none" xmlns="http://www.w3.org/2000/svg">
<path d="M13.9348 8.35608C13.9996 8.18593 14.0166 7.99869 13.9835 7.81807C13.9504 7.63744 13.8687 7.47153 13.7487 7.34135L10.32 3.61754C10.2409 3.52862 10.1463 3.4577 10.0417 3.40891C9.93713 3.36012 9.82465 3.33444 9.71083 3.33336C9.59701 3.33229 9.48414 3.35584 9.37879 3.40265C9.27344 3.44946 9.17774 3.51859 9.09725 3.606C9.01677 3.69341 8.95312 3.79735 8.91002 3.91176C8.86692 4.02617 8.84523 4.14876 8.84622 4.27237C8.84721 4.39598 8.87085 4.51814 8.91578 4.63172C8.9607 4.7453 9.02601 4.84803 9.10788 4.9339L11.0743 7.06951H2.8572C2.62985 7.06951 2.41182 7.16759 2.25107 7.34218C2.09031 7.51677 2 7.75356 2 8.00046C2 8.24736 2.09031 8.48416 2.25107 8.65874C2.41182 8.83333 2.62985 8.93141 2.8572 8.93141H11.0743L9.10874 11.0661C9.02686 11.152 8.96156 11.2547 8.91664 11.3683C8.87171 11.4818 8.84806 11.604 8.84707 11.7276C8.84609 11.8512 8.86777 11.9738 8.91088 12.0882C8.95398 12.2026 9.01763 12.3066 9.09811 12.394C9.1786 12.4814 9.2743 12.5505 9.37965 12.5973C9.485 12.6441 9.59787 12.6677 9.71169 12.6666C9.82551 12.6656 9.93799 12.6399 10.0426 12.5911C10.1472 12.5423 10.2417 12.4714 10.3208 12.3825L13.7496 8.65864C13.829 8.57197 13.8919 8.46916 13.9348 8.35608Z" fill="white"/>
</svg>
